<svg xmlns="http://www.w3.org/2000/svg" viewBox="0 0 566.93 331.82"><defs><style>.cls-1{fill:#fff;}.cls-2{fill:#1a0832;}</style></defs><g id="Calque_2" data-name="Calque 2"><g id="Calque_1-2" data-name="Calque 1"><path class="cls-1" d="M46.92,30.52V.4h4.31V26.08a.39.39,0,0,0,.36.35h7.64v4.09Z"/><path class="cls-1" d="M71.85,29.9v2.44c0,4.13-3.51,5.86-7.47,5.86H62.7a.43.43,0,0,1-.36-.4v-3a.36.36,0,0,1,.36-.4h1.55c2.44,0,3.15-.36,3.15-2.09v-2.8l-6-21.32h4.67l3.19,11.64a.37.37,0,0,0,.71,0L73.27,8.22h4.62Z"/><path class="cls-1" d="M89.22,30.92c-6,0-7.56-2.53-7.56-8.09V15.9c0-5.55,1.6-8,7.56-8,5,0,6.84,2.36,6.84,4.71,0,.18,0,.4-.31.4H92.41a.5.5,0,0,1-.31-.09c-.22-.8-.88-1.33-2.88-1.33-2.58,0-3.25.67-3.25,4.35v6.93c0,3.69.67,4.4,3.25,4.44,2,0,2.66-.53,2.84-1.33,0-.09.18-.13.31-.13h3.38c.26,0,.31.22.31.4C96.06,28.56,94.24,30.92,89.22,30.92Z"/><path class="cls-1" d="M106.14,20.92a.47.47,0,0,0-.4.4c.05,1.38,0,3.07,0,3.07,0,1.37.62,2.48,3.2,2.48h5a.36.36,0,0,1,.35.4v2.94a.38.38,0,0,1-.35.35l-5-.09c-6,0-7.55-2.93-7.55-8V16c0-5.56,1.55-8.09,7.42-8.09s7.42,2.49,7.42,8v5Zm5.55-7.42c0-1.28-1-1.95-2.88-1.95s-2.89.67-2.89,1.95v3.34a.46.46,0,0,0,.49.44h4.93c.27,0,.35-.18.35-.44Zm-1.24-8.7h-2.53L110.54.4h4.31Z"/><path class="cls-1" d="M127.2,20.92a.47.47,0,0,0-.4.4c0,1.38,0,3.07,0,3.07,0,1.37.62,2.48,3.2,2.48h5a.36.36,0,0,1,.36.4v2.94a.39.39,0,0,1-.36.35l-5-.09c-6,0-7.55-2.93-7.55-8V16c0-5.56,1.55-8.09,7.42-8.09s7.41,2.49,7.41,8v5Zm5.55-7.42c0-1.28-1-1.95-2.88-1.95S127,12.22,127,13.5v3.34a.46.46,0,0,0,.49.44h4.93c.26,0,.35-.18.35-.44Z"/><path class="cls-1" d="M164.47,17.46h-2.88V30.52h-4.31V.4h7.19c4.93,0,7.42,1.82,7.42,6.26v4.53C171.89,15.28,169,17.46,164.47,17.46Zm3.11-10.75c0-1.91-.71-2.27-3.11-2.27h-2.53c-.18,0-.22.27-.35.4v8a.36.36,0,0,0,.35.4h2.53c2.18,0,3.11-.49,3.11-2Z"/><path class="cls-1" d="M191.84,15.19h-3.56a.43.43,0,0,1-.35-.4V13.5c0-1.55-.4-1.95-2.44-1.95A2.74,2.74,0,0,0,183,14.17V30.52h-4.26V12.22a.49.49,0,0,0-.4-.54l-1-.4a.39.39,0,0,1-.22-.53l.84-2.4a.44.44,0,0,1,.49-.22l2.53,1a1.22,1.22,0,0,0,1.16,0,7.81,7.81,0,0,1,4.13-1.2c4,0,6,1.6,6,5.64v1.29A.4.4,0,0,1,191.84,15.19Z"/><path class="cls-1" d="M197,30.52V11.68a.36.36,0,0,0-.35-.4h-1a.47.47,0,0,1-.4-.4V8.62a.4.4,0,0,1,.4-.4h5.64v22.3Zm2.13-26.66a1.93,1.93,0,0,1-1.91-1.95,1.91,1.91,0,1,1,3.82,0A1.93,1.93,0,0,1,199.12,3.86Z"/><path class="cls-1" d="M215.74,30.52h-4l-6.22-22.3h4.67l3.19,11.64c.09.4.63.31.72,0l3.24-11.64H222Z"/><path class="cls-1" d="M230.49,20.92a.47.47,0,0,0-.4.4c0,1.38,0,3.07,0,3.07,0,1.37.62,2.48,3.2,2.48h5a.37.37,0,0,1,.36.4v2.94a.39.39,0,0,1-.36.35l-5-.09c-6,0-7.55-2.93-7.55-8V16c0-5.56,1.55-8.09,7.41-8.09s7.42,2.49,7.42,8v5ZM236,13.5c0-1.28-1-1.95-2.89-1.95s-2.88.67-2.88,1.95v3.34a.46.46,0,0,0,.49.44h4.93c.26,0,.35-.18.35-.44ZM234.8,4.8h-2.53L234.89.4h4.3Z"/><path class="cls-1" d="M60.69,59.4H57.27a.37.37,0,0,1-.35-.27c-.31-1.24-1.33-1.69-3.33-1.69-2.76,0-3.11,1.07-3.11,2.27v4.57c0,1.91,1.24,2.22,2.66,2.45.62.08,1.29.13,2,.22,2.71.31,5.86,1.11,5.86,6.31v4.62c0,4.3-2.18,6.35-7.37,6.35-5.56,0-7.33-2.36-7.55-5.64,0-.23.08-.45.31-.45h3.37a.38.38,0,0,1,.4.27c.36,1.29,1.6,1.73,3.47,1.73,3,0,3.06-1,3.06-2.26V73.26c0-1.91-1.24-2.18-2.66-2.31l-1.91-.27c-2.76-.31-5.91-1.11-5.91-6.35V59.71c0-3.87,2.13-6.4,7.46-6.4,5,0,7.15,2.31,7.38,5.64C61,59.17,60.92,59.4,60.69,59.4Z"/><path class="cls-1" d="M81.75,83.69a.47.47,0,0,1-.49.27l-2.48-.89a1.24,1.24,0,0,0-1.11,0,7.51,7.51,0,0,1-4.27,1.16c-4.31,0-6.62-1.87-6.62-5.51V75.39c0-3.33,2-5.24,6.4-5.24h3.33a.37.37,0,0,0,.36-.4V66.64c0-.89-.85-1.42-3-1.42H68.38a.36.36,0,0,1-.35-.4V61.88a.38.38,0,0,1,.35-.35h5.46c5.42,0,7.33,2,7.33,5.6V79.87a.63.63,0,0,0,.4.58l.85.4a.38.38,0,0,1,.18.53Zm-4.88-9.9a.37.37,0,0,0-.36-.4H73.22c-1.6,0-2.13.62-2.13,2v3.33c0,1.07.44,1.82,2.8,1.82a2.86,2.86,0,0,0,3-2.58Z"/><path class="cls-1" d="M88.64,83.83V65a.36.36,0,0,0-.36-.4h-1a.47.47,0,0,1-.4-.4V61.93a.39.39,0,0,1,.4-.4H93v22.3Zm2.13-26.65a1.93,1.93,0,0,1-1.91-2,1.91,1.91,0,0,1,3.82,0A1.93,1.93,0,0,1,90.77,57.18Z"/><path class="cls-1" d="M115.07,83.83h-3.55a.43.43,0,0,1-.4-.36V68.28c0-2.53-.63-3.42-3.11-3.42a2.76,2.76,0,0,0-3.07,2.8V83.83h-4.35V65.53c0-.31-.22-.45-.45-.58l-.93-.49a.38.38,0,0,1-.18-.53l.8-2.27a.52.52,0,0,1,.54-.22l2.48,1a1.22,1.22,0,0,0,1.16-.05,9.31,9.31,0,0,1,4.75-1.2c4.44,0,6.71,2.4,6.71,7.11V83.47A.37.37,0,0,1,115.07,83.83Z"/><path class="cls-1" d="M132.53,65.22h-4.66v13c0,1.06.48,1.86,2.79,1.86h1.82a.36.36,0,0,1,.36.4v3a.39.39,0,0,1-.36.36h-1.82c-4.35,0-7.06-2-7.06-5.69V65.22h-3.77a.36.36,0,0,1-.36-.4V61.88a.39.39,0,0,1,.36-.35h3.77V53.71h4.27v7.82h4.66a.36.36,0,0,1,.35.4v2.89A.43.43,0,0,1,132.53,65.22Z"/><path class="cls-1" d="M141.86,74.23a.47.47,0,0,0-.4.4c0,1.38,0,3.07,0,3.07,0,1.37.62,2.49,3.2,2.49h5a.36.36,0,0,1,.36.4v2.93a.39.39,0,0,1-.36.35l-5-.09c-6,0-7.55-2.93-7.55-8V69.26c0-5.55,1.55-8.09,7.41-8.09s7.42,2.49,7.42,8v5Zm5.55-7.42c0-1.28-1-2-2.89-2s-2.88.67-2.88,2v3.34a.46.46,0,0,0,.49.44h4.93c.26,0,.35-.18.35-.44Z"/><path class="cls-1" d="M171.94,83.83V53.71h4.3V79.39a.39.39,0,0,0,.36.35h7.64v4.09Z"/><path class="cls-1" d="M196.24,84.23c-5.91,0-7.56-3.16-7.56-8V69.26c0-5.33,1.74-8.09,7.56-8.09s7.55,2.67,7.55,8.09v6.93C203.79,81.38,202.05,84.23,196.24,84.23Zm3.24-15c0-3.56-.45-4.4-3.24-4.4s-3.25.84-3.25,4.4v6.93c0,3.46.36,4.35,3.25,4.35s3.24-.89,3.24-4.35Z"/><path class="cls-1" d="M225.64,83.69a.52.52,0,0,1-.53.27l-2.49-1a1.2,1.2,0,0,0-1.15,0,9.34,9.34,0,0,1-4.75,1.2c-4.45,0-6.71-2.4-6.71-7.11V61.88a.36.36,0,0,1,.4-.35H214a.43.43,0,0,1,.4.35V77.12c0,2.53.62,3.42,3.11,3.42a2.77,2.77,0,0,0,3.07-2.8V61.53h4.35V79.87c0,.32.22.45.44.58l.94.49a.37.37,0,0,1,.17.53Z"/><path class="cls-1" d="M232.49,83.83V65a.37.37,0,0,0-.36-.4h-1a.48.48,0,0,1-.4-.4V61.93a.4.4,0,0,1,.4-.4h5.65v22.3Zm2.13-26.65a1.93,1.93,0,0,1-1.91-2,1.91,1.91,0,1,1,3.82,0A1.93,1.93,0,0,1,234.62,57.18Z"/><path class="cls-1" d="M250.88,84.23c-5.29,0-7.42-1.65-7.42-4.71,0-.18,0-.4.27-.4h3.37c.14,0,.27,0,.31.13.27,1,1.16,1.29,3.47,1.29,3,0,3.37-.4,3.37-1.33V75.74c0-.71-.48-1.11-4.17-1.11-4.62,0-6.49-1.86-6.49-5.06V66.1c0-3.15,1.6-4.93,7.6-4.93,5.68,0,7.33,1.87,7.33,4.71,0,.18,0,.4-.27.4h-3.37a.36.36,0,0,1-.32-.13c-.26-.89-.93-1.29-3.37-1.29-3.07,0-3.33.31-3.33,1.2v3.46c0,.76.4,1.16,3.95,1.16,4.8,0,6.8,1.64,6.8,5.11v3.46C258.61,82.67,256.61,84.23,250.88,84.23Z"/><path class="cls-1" d="M269.58,74.23a.47.47,0,0,0-.4.4c.05,1.38,0,3.07,0,3.07,0,1.37.62,2.49,3.2,2.49h5a.36.36,0,0,1,.36.4v2.93a.39.39,0,0,1-.36.35l-5-.09c-5.95,0-7.55-2.93-7.55-8V69.26c0-5.55,1.55-8.09,7.42-8.09s7.41,2.49,7.41,8v5Zm5.55-7.42c0-1.28-1-2-2.88-2s-2.89.67-2.89,2v3.34a.46.46,0,0,0,.49.44h4.93c.26,0,.35-.18.35-.44Z"/><path class="cls-1" d="M314.63,83.69c-.09.18-.36.36-.49.27l-2.22-1a1.38,1.38,0,0,0-1.25,0,8.42,8.42,0,0,1-4.57,1.25c-5,0-6.89-2.58-6.89-8V69.26c0-5.6,1.78-8.09,6.89-8.09a6.12,6.12,0,0,1,3.69,1.25V53.71h4.35v26a.64.64,0,0,0,.4.58l.93.44a.35.35,0,0,1,.22.49ZM309.79,68c0-1.64.22-3-2.94-3-2.84,0-3.28.49-3.28,4.09V76c0,3.68.66,4.48,3.11,4.48a2.82,2.82,0,0,0,3.11-2.93Z"/><path class="cls-1" d="M326.09,74.23a.47.47,0,0,0-.4.4c0,1.38,0,3.07,0,3.07,0,1.37.62,2.49,3.2,2.49h5a.36.36,0,0,1,.36.4v2.93a.39.39,0,0,1-.36.35l-5-.09c-5.95,0-7.55-2.93-7.55-8V69.26c0-5.55,1.55-8.09,7.41-8.09s7.42,2.49,7.42,8v5Zm5.55-7.42c0-1.28-1-2-2.89-2s-2.88.67-2.88,2v3.34a.46.46,0,0,0,.49.44h4.93c.26,0,.35-.18.35-.44Z"/><path class="cls-1" d="M216.4,315.66h-3.46v15.68h-5.17V295.18h8.63c5.92,0,8.91,2.19,8.91,7.52v5.44C225.31,313.05,221.84,315.66,216.4,315.66Zm3.74-12.9c0-2.3-.86-2.72-3.74-2.72h-3c-.22,0-.27.32-.43.48v9.65a.43.43,0,0,0,.43.48h3c2.62,0,3.74-.59,3.74-2.45Z"/><path class="cls-1" d="M250.22,331.18a.57.57,0,0,1-.59.32l-3-1.07a1.5,1.5,0,0,0-1.34,0,9,9,0,0,1-5.12,1.39c-5.17,0-7.94-2.24-7.94-6.61v-4c0-4,2.45-6.3,7.68-6.3h4a.43.43,0,0,0,.42-.47V310.7c0-1.06-1-1.7-3.62-1.7h-6.56a.44.44,0,0,1-.43-.48V305a.45.45,0,0,1,.43-.43h6.56c6.5,0,8.8,2.45,8.8,6.72V326.6a.75.75,0,0,0,.48.69l1,.48a.44.44,0,0,1,.21.64Zm-5.87-11.89a.43.43,0,0,0-.42-.48h-4c-1.92,0-2.56.75-2.56,2.4v4c0,1.28.53,2.18,3.36,2.18a3.42,3.42,0,0,0,3.57-3.09Z"/><path class="cls-1" d="M275,312.94h-4.27a.5.5,0,0,1-.42-.48v-1.54c0-1.87-.48-2.35-2.94-2.35a3.28,3.28,0,0,0-3,3.15v19.62h-5.12v-22a.59.59,0,0,0-.48-.64l-1.17-.48a.47.47,0,0,1-.27-.64l1-2.88a.54.54,0,0,1,.58-.27l3,1.18a1.43,1.43,0,0,0,1.39-.06,9.38,9.38,0,0,1,5-1.44c4.85,0,7.2,1.92,7.2,6.78v1.54A.47.47,0,0,1,275,312.94Z"/><path class="cls-1" d="M289.8,331.82c-7.15,0-9.07-3-9.07-9.71V313.8c0-6.67,1.92-9.66,9.07-9.66,6,0,8.21,2.83,8.21,5.66,0,.21-.06.48-.37.48h-4a.69.69,0,0,1-.38-.11c-.27-1-1.06-1.6-3.46-1.6-3.1,0-3.9.8-3.9,5.23v8.31c0,4.43.8,5.28,3.9,5.34,2.4,0,3.19-.64,3.41-1.6a.4.4,0,0,1,.37-.16h4.06c.31,0,.37.26.37.48C298,329,295.82,331.82,289.8,331.82Z"/><path class="cls-1" d="M313.48,331.82c-7.1,0-9.07-3.79-9.07-9.65v-8.32c0-6.4,2.08-9.71,9.07-9.71s9.06,3.2,9.06,9.71v8.32C322.54,328.41,320.46,331.82,313.48,331.82Zm3.89-18c0-4.27-.53-5.28-3.89-5.28s-3.9,1-3.9,5.28v8.32c0,4.16.43,5.22,3.9,5.22s3.89-1.06,3.89-5.22Z"/><path class="cls-1" d="M348.78,331.18a.63.63,0,0,1-.63.32l-3-1.17a1.4,1.4,0,0,0-1.39.05,11.18,11.18,0,0,1-5.7,1.44c-5.34,0-8.06-2.88-8.06-8.53V305a.44.44,0,0,1,.48-.43h4.27a.51.51,0,0,1,.48.43v18.29c0,3,.75,4.1,3.73,4.1,2.45,0,3.68-1.54,3.68-3.35V304.57h5.23v22c0,.37.27.53.53.69l1.12.59a.43.43,0,0,1,.21.63Z"/><path class="cls-1" d="M373.53,312.94h-4.26a.5.5,0,0,1-.43-.48v-1.54c0-1.87-.48-2.35-2.93-2.35a3.28,3.28,0,0,0-3,3.15v19.62h-5.12v-22a.59.59,0,0,0-.48-.64l-1.18-.48a.47.47,0,0,1-.26-.64l1-2.88a.55.55,0,0,1,.59-.27l3,1.18a1.41,1.41,0,0,0,1.38-.06,9.4,9.4,0,0,1,5-1.44c4.86,0,7.2,1.92,7.2,6.78v1.54A.47.47,0,0,1,373.53,312.94Z"/><path class="cls-1" d="M388.15,331.82c-6.35,0-8.91-2-8.91-5.65,0-.22,0-.48.32-.48h4.05a.43.43,0,0,1,.38.16c.32,1.22,1.38,1.54,4.16,1.54,3.57,0,4.05-.48,4.05-1.6v-4.15c0-.86-.59-1.34-5-1.34-5.55,0-7.79-2.24-7.79-6.08v-4.16c0-3.78,1.92-5.92,9.12-5.92,6.83,0,8.8,2.24,8.8,5.66,0,.21,0,.48-.32.48H393a.45.45,0,0,1-.38-.16c-.32-1.07-1.12-1.55-4.05-1.55-3.68,0-4,.37-4,1.44v4.16c0,.91.48,1.39,4.75,1.39,5.76,0,8.16,2,8.16,6.13v4.16C397.43,330,395,331.82,388.15,331.82Z"/><path class="cls-1" d="M438.87,331.18a.57.57,0,0,1-.59.32l-3-1.07a1.5,1.5,0,0,0-1.34,0,9,9,0,0,1-5.12,1.39c-5.17,0-7.94-2.24-7.94-6.61v-4c0-4,2.45-6.3,7.68-6.3h4a.43.43,0,0,0,.42-.47V310.7c0-1.06-1-1.7-3.62-1.7h-6.56a.44.44,0,0,1-.43-.48V305a.45.45,0,0,1,.43-.43h6.56c6.5,0,8.8,2.45,8.8,6.72V326.6a.75.75,0,0,0,.48.69l1,.48a.44.44,0,0,1,.21.64Zm-12-30.72-5.33-5.28h5.17l3.2,5.28ZM433,319.29a.43.43,0,0,0-.42-.48h-3.95c-1.92,0-2.56.75-2.56,2.4v4c0,1.28.53,2.18,3.36,2.18A3.42,3.42,0,0,0,433,324.3Z"/><path class="cls-1" d="M472,331.34h-4.8l-7.46-26.77h5.6l3.84,14c.1.48.74.38.85,0l3.89-14h5.55Z"/><path class="cls-1" d="M489.7,319.82a.56.56,0,0,0-.48.48c0,1.66,0,3.68,0,3.68,0,1.65.75,3,3.84,3h6a.43.43,0,0,1,.43.48V331a.45.45,0,0,1-.43.42l-6-.1c-7.15,0-9.07-3.52-9.07-9.6v-7.84c0-6.67,1.87-9.71,8.91-9.71s8.91,3,8.91,9.66v6Zm6.67-8.9c0-1.55-1.18-2.35-3.47-2.35s-3.47.8-3.47,2.35v4a.55.55,0,0,0,.59.54h5.92c.32,0,.43-.21.43-.54Z"/><path class="cls-1" d="M527.84,331.34h-4.27a.5.5,0,0,1-.48-.43V312.68c0-3-.75-4.11-3.73-4.11-2.46,0-3.68,1.55-3.68,3.36v19.41h-5.23v-22c0-.37-.27-.53-.53-.69l-1.12-.59a.45.45,0,0,1-.22-.64l1-2.72a.63.63,0,0,1,.64-.27l3,1.18a1.43,1.43,0,0,0,1.39-.06,11.15,11.15,0,0,1,5.7-1.44c5.33,0,8,2.88,8,8.54v18.23A.43.43,0,0,1,527.84,331.34Z"/><path class="cls-1" d="M536.26,331.34V308.73a.43.43,0,0,0-.42-.48h-1.18a.57.57,0,0,1-.48-.48v-2.72a.48.48,0,0,1,.48-.48h6.78v26.77Zm2.56-32a2.31,2.31,0,0,1-2.29-2.34,2.3,2.3,0,1,1,4.59,0A2.32,2.32,0,0,1,538.82,299.34Z"/><path class="cls-1" d="M566.45,312.94h-4.27a.5.5,0,0,1-.42-.48v-1.54c0-1.87-.48-2.35-2.94-2.35a3.28,3.28,0,0,0-3,3.15v19.62h-5.11v-22a.59.59,0,0,0-.48-.64l-1.18-.48a.47.47,0,0,1-.27-.64l1-2.88a.54.54,0,0,1,.59-.27l3,1.18a1.43,1.43,0,0,0,1.39-.06,9.38,9.38,0,0,1,5-1.44c4.85,0,7.2,1.92,7.2,6.78v1.54A.47.47,0,0,1,566.45,312.94Z"/><polygon class="cls-2" points="471.01 83.16 456.41 83.16 456.41 35.23 408.48 35.23 408.48 20.63 471.01 20.63 471.01 83.16"/><polygon class="cls-2" points="431.34 122.83 416.74 122.83 416.74 74.9 368.81 74.9 368.81 60.3 431.34 60.3 431.34 122.83"/><rect class="cls-2" x="274.34" y="116.83" width="19.9" height="19.9"/><polygon class="cls-1" points="80.55 113.79 49.02 209.43 18.23 113.79 0 113.79 0 266.1 18.96 266.1 18.96 167.1 42.63 241.17 55.41 241.17 79.82 163.16 79.82 266.1 98.04 266.1 98.04 113.79 80.55 113.79"/><path class="cls-1" d="M180.69,169.78a25.07,25.07,0,0,0-11-10.63q-7.23-3.68-17.39-3.67-15.08,0-23.35,8.12t-8.28,23h19.38q0-6.6,3.09-10.21a10.76,10.76,0,0,1,8.64-3.62q6.28,0,9.79,3.62t3.51,10.21v14.14h-13q-16.86,0-25.24,9.06t-8.38,27.39q0,15.3,6.7,22.89t20.11,7.6a24.78,24.78,0,0,0,12.1-2.68,16.83,16.83,0,0,0,7.34-8.11c.13-.29.24-.59.36-.89V266.1h19.38V186.59Q184.46,176.75,180.69,169.78Zm-19.27,75.94q-3.67,4.14-11.11,4.14-6.39,0-9.58-3.14t-3.2-9.54q0-9.31,3.67-14t11-4.66h12.88v14.77Q165.08,241.58,161.42,245.72Z"/><path class="cls-1" d="M475.77,169.78a25.12,25.12,0,0,0-11-10.63q-7.23-3.68-17.39-3.67-15.08,0-23.36,8.12t-8.27,23h19.37c0-4.4,1-7.8,3.09-10.21a10.78,10.78,0,0,1,8.65-3.62q6.28,0,9.79,3.62t3.51,10.21v14.14h-13q-16.86,0-25.24,9.06t-8.38,27.39q0,15.3,6.7,22.89t20.11,7.6a24.81,24.81,0,0,0,12.1-2.68,16.81,16.81,0,0,0,7.33-8.11c.13-.29.25-.6.37-.9V266.1h19.38V186.59Q479.54,176.75,475.77,169.78Zm-19.28,75.94q-3.66,4.14-11.1,4.14-6.39,0-9.58-3.14t-3.2-9.54q0-9.31,3.67-14t11-4.66h12.88v14.77Q460.16,241.58,456.49,245.72Z"/><path class="cls-1" d="M515.57,263.9a25.82,25.82,0,0,1-11.2-11q-3.89-7.29-3.88-17.55V189.42q0-10.78,3.88-18.38a26.47,26.47,0,0,1,11.26-11.58q7.38-4,17.75-4t17.91,4a26.35,26.35,0,0,1,11.31,11.68q3.89,7.7,3.88,18.49v3.56H546.79v-3.56q0-7.44-3.46-11.52c-2.3-2.73-5.52-4.09-9.63-4.09s-7.46,1.35-9.8,4-3.51,6.48-3.51,11.37V235.3q0,6.6,3.51,10.21t9.8,3.62q6.16,0,9.68-3.78t3.51-10.47v-3.46h19.8v3.46q0,10.37-3.93,17.7a26.49,26.49,0,0,1-11.36,11.21q-7.44,3.87-18,3.88T515.57,263.9Z"/><path class="cls-1" d="M238.88,161a40.28,40.28,0,0,0-11.47,11.7V157.37h-19.9V266.1h19.9V197.59q.21-10.36,7.07-16.29t19-5.92h3.77v-19.9A32.62,32.62,0,0,0,238.88,161Z"/><path class="cls-1" d="M388.56,244.62c-1.36-1.74-2-4.19-2-7.33V105.12L366.62,125V237.29q0,13.72,6.65,21.27t18.8,7.54h8.38V247.24h-6A7.05,7.05,0,0,1,388.56,244.62Z"/><polygon class="cls-1" points="274.34 217.3 274.34 266.1 294.24 266.1 294.24 197.4 274.34 217.3"/><path class="cls-1" d="M339.65,245.9c-1.36-1.74-2-4.19-2-7.33V154l-19.9,19.9v64.64q0,13.73,6.65,21.27t18.8,7.54h8.38V248.52h-6A7,7,0,0,1,339.65,245.9Z"/></g></g></svg>